<?xml version="1.0" standalone="no"?>
<!DOCTYPE svg PUBLIC "-//W3C//DTD SVG 20010904//EN"
 "http://www.w3.org/TR/2001/REC-SVG-20010904/DTD/svg10.dtd">
<svg version="1.0" xmlns="http://www.w3.org/2000/svg"
 width="440.000000pt" height="233.000000pt" viewBox="0 0 440.000000 233.000000"
 preserveAspectRatio="xMidYMid meet">

<g transform="translate(0.000000,233.000000) scale(0.100000,-0.100000)"
fill="#000000" stroke="none">
<path d="M2447 2204 c-3 -4 -32 -9 -64 -13 -57 -6 -58 -7 -80 -53 -12 -26 -51
-76 -86 -112 -74 -76 -121 -94 -267 -102 -89 -6 -97 -5 -130 18 -52 36 -83 86
-75 125 3 19 0 46 -9 67 l-14 34 -84 2 c-144 2 -170 0 -318 -25 -367 -64 -615
-158 -663 -252 -11 -21 -29 -56 -40 -78 -18 -36 -95 -268 -192 -580 -19 -60
-43 -157 -55 -213 -16 -79 -35 -133 -79 -225 -68 -141 -161 -417 -168 -497 -3
-30 -13 -85 -24 -121 -10 -36 -19 -69 -19 -72 0 -3 16 -11 37 -16 32 -9 43 -7
97 23 34 19 73 36 87 40 15 3 53 23 85 44 325 214 444 293 594 398 234 162
245 168 421 199 46 8 131 30 188 50 120 40 167 44 204 15 56 -44 44 -134 -42
-301 -32 -63 -62 -125 -66 -139 -4 -13 -34 -67 -66 -119 -32 -52 -57 -96 -56
-98 2 -1 46 16 98 38 120 52 249 73 398 64 64 -3 115 -12 134 -22 17 -8 33
-12 34 -7 10 28 26 34 104 40 l84 7 16 -34 17 -34 17 35 17 36 111 17 c136 21
197 21 350 2 127 -16 722 -21 832 -7 104 12 204 0 250 -31 22 -15 44 -27 50
-27 6 0 17 17 24 38 8 20 28 69 46 107 18 39 40 99 50 135 18 70 73 218 85
235 5 6 13 30 20 54 6 25 23 59 36 76 l24 31 -35 34 c-19 19 -35 39 -35 45 0
6 -24 36 -53 68 -38 40 -61 57 -79 57 -37 0 -119 30 -155 56 -37 28 -48 59
-63 174 -25 194 -124 293 -328 326 -104 17 -112 19 -187 54 -111 51 -133 59
-212 75 -111 22 -136 32 -166 63 -39 41 -68 115 -58 149 6 19 4 41 -6 66 -14
35 -18 37 -58 37 -23 0 -58 7 -78 15 -57 24 -381 47 -400 29z m838 -680 c-60
-194 -85 -246 -139 -283 -73 -51 -143 -65 -305 -64 -78 1 -145 4 -148 7 -3 2
7 44 22 93 14 48 29 96 32 107 5 18 13 18 132 12 110 -6 129 -5 141 9 7 8 10
19 6 22 -4 4 -63 9 -131 11 -69 3 -125 7 -125 11 0 4 10 36 21 70 l22 63 138
-4 c135 -4 138 -4 148 18 9 21 7 24 -22 29 -18 3 -52 7 -77 9 -25 2 -15 3 23
2 37 0 67 2 67 5 0 3 48 6 107 6 88 0 109 3 117 16 21 33 15 5 -29 -139z m447
122 c52 -22 105 -71 130 -120 46 -89 14 -224 -69 -297 -45 -39 -161 -95 -172
-83 -9 10 -51 120 -51 133 0 5 11 12 25 15 34 9 105 74 121 111 15 37 8 76
-17 104 -21 23 -49 28 -49 10 0 -6 -23 -58 -50 -116 -34 -68 -66 -120 -95
-149 -39 -39 -50 -44 -89 -44 -86 0 -141 90 -121 197 22 120 102 211 218 249
52 17 167 12 219 -10z m-993 -106 c-37 -127 -88 -228 -144 -284 -49 -49 -167
-115 -173 -98 -2 8 -41 12 -122 12 -109 0 -118 -1 -123 -20 -5 -18 -14 -20
-87 -20 -80 0 -81 0 -75 23 30 99 79 253 84 259 3 4 67 16 140 28 74 12 145
26 157 30 40 16 97 74 120 125 13 27 24 43 24 35 0 -13 17 -14 102 -12 74 2
106 7 113 17 5 8 10 13 12 12 1 -2 -12 -50 -28 -107z m-306 66 c-5 -22 -10
-23 -101 -30 -54 -3 -116 -9 -140 -12 -41 -6 -42 -6 -34 16 8 21 14 22 130 24
78 2 127 7 134 14 16 16 16 16 11 -12z m-336 -3 c-3 -5 -26 -78 -52 -163 -92
-300 -144 -360 -385 -451 -137 -51 -343 -119 -348 -115 -3 4 77 284 84 294 1
2 67 21 146 42 79 21 150 41 160 45 14 6 51 65 44 72 -2 2 -284 -71 -313 -82
-13 -4 1 47 40 158 l22 61 177 44 c166 41 177 45 183 70 4 18 9 22 14 13 6 -9
33 -10 110 -5 56 4 104 11 107 15 6 11 17 12 11 2z m-402 -22 c-39 -15 -80
-23 -70 -13 10 10 42 18 75 20 8 0 6 -3 -5 -7z m-295 -241 c-39 -128 -85 -260
-102 -294 -41 -80 -128 -170 -268 -275 -153 -115 -890 -605 -897 -597 -2 1 41
141 95 310 l98 308 164 85 c91 47 231 115 312 153 201 93 215 105 265 232 23
57 56 146 74 198 l33 95 85 2 c114 3 191 9 198 17 18 17 8 -22 -57 -234z
m-387 70 c-25 -85 -50 -160 -57 -166 -6 -6 -49 -26 -96 -43 -47 -18 -168 -73
-269 -122 -101 -50 -184 -89 -186 -87 -1 2 30 99 69 217 70 210 72 213 106
228 210 91 265 111 282 102 10 -6 23 -7 29 -4 5 4 42 9 82 11 40 3 74 9 76 15
1 6 5 9 7 7 2 -2 -17 -73 -43 -158z m590 149 c-5 -4 -24 -12 -44 -17 -33 -9
-36 -8 -32 8 4 13 14 18 44 17 21 -1 36 -4 32 -8z m-723 -9 c0 -5 -2 -10 -4
-10 -3 0 -8 5 -11 10 -3 6 -1 10 4 10 6 0 11 -4 11 -10z m1513 -420 c-5 -18 0
-20 56 -20 48 0 61 3 61 15 0 12 16 15 85 15 47 0 85 -2 85 -5 0 -2 -9 -27
-20 -55 -24 -60 -24 -60 -7 -60 8 0 19 11 25 25 10 21 19 25 51 25 36 0 40 3
51 35 l12 35 80 0 c69 0 79 -2 74 -16 -22 -57 -20 -63 22 -66 l40 -3 -34 -84
c-19 -47 -34 -86 -34 -88 0 -2 30 -3 66 -3 61 0 65 -1 59 -20 -5 -17 -2 -20
20 -20 22 0 25 -3 20 -20 -5 -17 -2 -20 22 -20 27 0 30 5 83 158 l56 157 387
3 c246 1 387 6 387 12 0 6 30 10 68 10 l67 0 24 -42 c13 -24 46 -66 74 -95 53
-57 53 -52 -2 -123 -20 -25 -58 -100 -84 -168 -44 -109 -51 -122 -73 -122 -31
0 -30 -7 3 -42 l27 -28 -34 -105 c-19 -58 -38 -105 -42 -105 -22 0 -74 50
-109 103 -20 32 -40 53 -44 47 -26 -42 -248 -118 -265 -91 -5 9 -93 12 -323
13 -175 0 -317 4 -317 8 0 3 -25 5 -55 2 -58 -5 -110 10 -119 34 -4 11 -11 11
-31 4 -15 -6 -46 -10 -71 -10 -43 0 -44 1 -38 27 l7 27 -41 -33 c-23 -18 -44
-37 -47 -42 -4 -5 -35 -9 -70 -9 l-65 0 -16 -37 -16 -38 -22 57 c-12 31 -24
60 -27 63 -4 3 -22 -3 -40 -14 -19 -10 -53 -25 -75 -31 -35 -11 -45 -19 -58
-52 l-15 -40 -30 21 c-110 79 -251 70 -467 -29 -48 -22 -89 -38 -91 -36 -7 6
166 274 186 289 25 17 93 197 75 197 -23 0 38 153 65 160 l21 5 -20 33 c-25
40 -25 40 3 44 17 2 28 17 46 66 l25 62 82 0 c73 0 82 2 87 20 5 18 14 20 105
20 95 0 100 -1 95 -20z"/>
<path d="M3482 1514 c-49 -34 -81 -150 -45 -161 14 -5 97 153 88 167 -8 14
-17 12 -43 -6z"/>
<path d="M2223 1090 c-5 -18 -14 -20 -88 -20 -81 0 -83 -1 -93 -27 -5 -16 -13
-36 -17 -45 -6 -15 -1 -18 30 -18 47 0 37 -18 -16 -26 -21 -4 -39 -9 -39 -13
0 -3 9 -19 20 -36 11 -16 20 -33 20 -37 0 -4 -19 -8 -42 -10 -38 -3 -42 -6
-54 -40 l-13 -38 150 0 c82 0 149 -1 149 -3 0 -5 -91 -260 -95 -268 -3 -4 -26
-1 -52 7 -49 15 -148 18 -203 8 -26 -6 -45 -24 -96 -93 -35 -47 -64 -89 -64
-94 0 -4 22 4 48 17 27 14 79 35 117 47 85 27 188 23 252 -9 23 -12 46 -22 50
-22 5 0 42 92 83 204 72 201 74 205 103 208 25 2 32 10 43 40 12 34 11 37 -8
40 -20 3 -20 4 6 35 25 30 26 33 9 39 -87 28 -96 44 -25 44 48 0 49 1 60 39 7
21 12 41 12 45 0 3 -32 6 -71 6 -66 0 -70 1 -64 20 6 18 2 20 -50 20 -48 0
-58 -3 -62 -20z m60 -185 l47 -45 -110 0 c-67 0 -110 4 -110 10 0 6 6 10 14
10 10 0 86 47 112 69 0 1 22 -19 47 -44z"/>
<path d="M2519 1035 c-12 -36 -28 -65 -34 -65 -16 0 -46 -78 -33 -82 6 -2 -8
-48 -31 -104 -30 -75 -40 -109 -35 -131 6 -29 4 -31 -37 -45 -43 -14 -45 -17
-76 -99 -17 -46 -30 -85 -28 -87 7 -7 94 33 127 59 20 16 41 29 47 29 5 0 12
-18 16 -40 l7 -40 71 0 c68 0 73 2 118 40 26 22 67 49 91 59 41 17 44 22 67
92 13 41 26 79 28 86 3 7 -7 13 -25 15 l-30 3 64 179 c35 99 64 183 64 188 0
4 -15 8 -34 8 l-33 0 -48 -132 c-45 -124 -65 -168 -65 -141 0 6 16 53 35 103
19 50 35 94 35 96 0 2 -15 4 -33 4 -32 0 -33 -1 -66 -95 -30 -85 -54 -126 -66
-113 -2 2 9 31 25 64 40 79 39 84 -15 84 -25 0 -45 4 -45 9 0 5 9 30 20 56 11
26 20 51 20 56 0 5 -18 9 -39 9 -39 0 -39 0 -62 -65z m20 -223 c-26 -65 -49
-105 -57 -97 -6 5 46 142 62 164 21 27 18 -10 -5 -67z m47 -80 c-9 -23 -11
-42 -6 -42 6 0 29 17 51 37 35 32 41 34 35 15 -7 -20 -4 -22 33 -22 23 0 41
-3 41 -7 0 -3 -8 -31 -17 -61 -18 -58 -25 -63 -103 -83 -33 -8 -60 -26 -97
-64 -29 -28 -53 -48 -53 -44 0 5 9 33 21 64 11 31 18 62 15 70 -3 8 10 38 29
67 19 29 40 67 46 86 6 18 13 31 15 29 2 -2 -2 -23 -10 -45z"/>
<path d="M2600 653 c-33 -23 -56 -50 -48 -58 4 -4 97 27 114 38 7 3 14 16 17
27 4 16 0 20 -21 19 -15 0 -43 -12 -62 -26z"/>
<path d="M4029 1051 c-21 -22 -47 -45 -59 -51 -25 -13 -24 -16 -4 58 6 22 5
22 -85 22 -64 0 -93 -4 -96 -12 -2 -7 -47 -125 -99 -263 -52 -137 -106 -280
-120 -317 l-25 -68 48 0 47 0 18 55 c17 55 36 73 36 35 0 -26 8 -25 37 2 28
26 29 18 3 -49 l-19 -52 42 13 c78 25 97 36 145 80 l48 45 19 -55 c21 -63 80
-138 89 -114 3 8 14 41 25 72 19 56 19 56 -1 75 -11 10 -29 35 -39 56 -22 41
-19 44 40 49 32 3 35 6 71 98 l38 95 -49 3 c-37 2 -47 6 -42 18 3 8 19 14 39
14 22 0 37 6 40 15 5 11 10 13 19 5 10 -8 21 -1 44 28 l30 39 -30 29 c-17 16
-42 48 -57 71 -25 40 -30 43 -72 43 -39 -1 -50 -6 -81 -39z m121 -113 c0 -5
-22 -8 -50 -8 -27 0 -50 2 -50 4 0 3 12 18 28 34 l27 28 22 -25 c13 -14 23
-29 23 -33z m-280 45 c0 -17 -35 -99 -48 -116 -23 -27 -25 -14 -4 39 10 27 22
57 25 67 6 16 27 24 27 10z m66 -106 c8 3 14 0 14 -5 0 -6 10 -12 23 -14 40
-5 19 -23 -32 -26 l-49 -3 -22 -59 c-12 -33 -24 -60 -25 -60 -12 0 13 90 31
118 13 18 26 43 30 55 7 18 9 19 12 5 2 -10 9 -15 18 -11z m24 -134 c0 -5 -4
-15 -10 -23 -11 -18 -25 -7 -17 15 6 15 27 21 27 8z m120 0 c0 -5 -4 -15 -10
-23 -11 -18 -25 -7 -17 15 6 15 27 21 27 8z m-330 -61 c-5 -22 -19 -51 -30
-64 -18 -21 -18 -17 5 46 14 37 25 71 26 75 0 3 3 1 5 -6 3 -6 0 -29 -6 -51z
m121 -76 c-23 -25 -89 -61 -97 -54 -2 2 8 21 22 41 21 31 30 37 61 37 l36 0
-22 -24z"/>
<path d="M3290 1056 c-17 -47 -70 -198 -70 -202 0 -2 104 -3 232 -2 l232 3 37
95 c21 52 38 103 38 113 1 16 -16 17 -229 17 l-230 0 -10 -24z m335 -66 c-4
-6 -57 -10 -126 -10 -73 0 -119 4 -119 10 0 6 49 10 126 10 81 0 123 -4 119
-10z m-87 -67 c-32 -2 -86 -2 -120 0 -35 2 -9 3 57 3 66 0 94 -1 63 -3z"/>
<path d="M2886 1012 c-2 -4 -19 -43 -37 -87 -35 -88 -43 -181 -19 -210 13 -15
16 -11 33 36 10 30 20 69 23 86 2 18 14 56 25 85 43 107 42 98 9 98 -16 0 -31
-4 -34 -8z"/>
<path d="M2935 819 c-4 -11 -17 -24 -30 -29 -24 -9 -44 -62 -26 -68 29 -10
-12 -97 -64 -139 -32 -26 -75 -106 -63 -119 12 -11 59 10 99 44 40 34 42 35
35 12 -4 -14 -10 -38 -13 -53 l-5 -28 73 3 74 3 19 53 c15 42 23 52 41 52 17
0 26 9 34 31 14 42 14 49 -4 49 -8 0 -15 4 -15 9 0 23 14 41 32 41 12 0 24 12
34 35 7 19 14 37 14 40 0 3 -27 5 -59 5 l-59 0 -23 -65 c-23 -65 -23 -65 -61
-65 -36 0 -37 1 -28 26 21 53 31 64 59 64 24 0 31 6 40 31 14 41 15 39 -15 39
-23 0 -26 3 -22 25 5 23 2 25 -28 25 -24 0 -34 -5 -39 -21z m35 -284 c0 -8 -4
-15 -10 -15 -5 0 -10 7 -10 15 0 8 5 15 10 15 6 0 10 -7 10 -15z"/>
<path d="M3211 811 c-13 -23 -141 -370 -141 -380 0 -4 98 -7 217 -7 l218 1 72
190 c40 105 72 196 73 203 0 9 -49 12 -215 12 -200 0 -215 -1 -224 -19z m279
-91 c0 -6 -35 -10 -84 -10 -47 0 -88 5 -91 10 -4 6 27 10 84 10 54 0 91 -4 91
-10z m-40 -100 c0 -6 -35 -10 -85 -10 -50 0 -85 4 -85 10 0 6 35 10 85 10 50
0 85 -4 85 -10z m-35 -90 c4 -6 -27 -10 -84 -10 -54 0 -91 4 -91 10 0 6 35 10
84 10 47 0 88 -4 91 -10z"/>
<path d="M1913 668 c-17 -46 -34 -91 -38 -100 -7 -17 3 -18 118 -18 110 0 126
2 132 18 4 9 20 54 35 100 l29 82 -122 0 -123 0 -31 -82z m145 -15 c-4 -22
-58 -31 -58 -10 0 20 10 27 37 27 18 0 24 -5 21 -17z"/>
</g>
</svg>
